<?xml version="1.0" standalone="no"?>
<!DOCTYPE svg PUBLIC "-//W3C//DTD SVG 20010904//EN"
 "http://www.w3.org/TR/2001/REC-SVG-20010904/DTD/svg10.dtd">
<svg version="1.0" xmlns="http://www.w3.org/2000/svg"
 width="1310.000000pt" height="1310.000000pt" viewBox="0 0 1310.000000 1310.000000"
 preserveAspectRatio="xMidYMid meet">
<metadata>
Created by potrace 1.14, written by Peter Selinger 2001-2017
</metadata>
<g transform="translate(0.000000,1310.000000) scale(0.100000,-0.100000)"
fill="#000000" stroke="none">
<path d="M6495 12830 c-4 -6 -11 -7 -17 -4 -7 5 -9 1 -5 -8 5 -14 1 -15 -25
-8 -26 8 -28 7 -17 -6 10 -13 8 -13 -15 -4 -22 8 -30 6 -46 -10 -11 -11 -20
-15 -20 -9 0 6 -6 9 -12 6 -7 -2 -12 -9 -11 -15 1 -5 -3 -9 -10 -9 -35 1 -58
-4 -53 -12 4 -5 -4 -7 -16 -3 -17 4 -20 2 -15 -11 4 -12 2 -14 -10 -10 -8 3
-19 0 -24 -8 -6 -10 -9 -10 -9 -1 0 6 -4 12 -9 12 -5 0 -8 -8 -7 -17 0 -10 -5
-18 -11 -19 -7 -1 -15 -3 -18 -4 -13 -7 -31 -5 -38 5 -4 6 -7 1 -5 -10 2 -15
-2 -19 -16 -17 -18 3 -18 2 -5 -14 13 -16 12 -16 -10 -5 -19 11 -22 11 -16 0
6 -8 4 -11 -6 -7 -8 3 -25 -2 -37 -12 -14 -12 -18 -20 -10 -22 8 -3 6 -7 -5
-11 -9 -3 -17 -2 -17 4 0 6 -5 7 -10 4 -6 -4 -8 -11 -4 -16 3 -6 -2 -9 -11 -7
-10 2 -20 -3 -23 -11 -3 -8 0 -11 6 -7 6 3 13 2 16 -3 7 -10 -13 -9 -30 2 -14
8 -37 -16 -26 -29 4 -4 -1 -2 -10 5 -15 11 -18 11 -18 -2 0 -9 -5 -19 -12 -23
-6 -4 -8 -3 -4 4 3 6 2 14 -4 17 -6 4 -10 3 -9 -2 4 -21 -2 -33 -16 -33 -8 0
-15 5 -15 12 0 6 -3 8 -6 5 -4 -4 -2 -13 5 -20 9 -12 6 -14 -15 -11 -19 2 -24
-1 -20 -12 5 -12 2 -12 -17 -3 -21 12 -21 11 -7 -6 9 -11 10 -16 3 -11 -7 4
-19 4 -25 -1 -7 -4 -15 -8 -18 -9 -20 -4 -39 -18 -34 -25 3 -5 0 -9 -6 -9 -6
0 -9 -4 -6 -8 3 -5 -1 -9 -9 -9 -8 0 -12 4 -9 9 3 4 0 8 -5 8 -6 0 -11 -7 -11
-15 0 -10 -7 -15 -17 -13 -12 2 -18 -3 -17 -14 1 -10 -2 -16 -6 -13 -4 3 -18
-4 -31 -14 -19 -15 -28 -17 -44 -9 -11 6 -17 7 -13 3 9 -10 -35 -45 -57 -45
-12 0 -15 -5 -11 -16 6 -15 4 -15 -11 -3 -14 12 -16 12 -8 0 6 -11 4 -13 -10
-7 -15 5 -16 4 -5 -9 15 -18 -1 -20 -19 -2 -10 10 -11 9 -5 -6 5 -13 2 -16
-10 -11 -9 3 -16 1 -16 -5 0 -6 5 -11 11 -11 5 0 7 -5 3 -11 -4 -8 -10 -6 -17
6 -9 16 -13 14 -44 -21 -20 -21 -30 -31 -23 -21 10 13 10 17 0 17 -6 0 -14 -9
-17 -21 -4 -16 -8 -17 -14 -7 -7 10 -9 9 -9 -4 0 -11 -5 -15 -15 -12 -9 4 -15
0 -15 -9 0 -11 -7 -15 -21 -12 -15 3 -19 0 -15 -11 5 -12 2 -13 -17 -3 -20 11
-21 11 -8 -5 12 -14 12 -16 -2 -11 -8 4 -18 1 -23 -6 -5 -8 -3 -10 7 -4 12 7
12 6 0 -6 -10 -11 -15 -11 -18 -1 -3 6 -9 12 -14 12 -6 0 -7 -5 -4 -10 4 -6 1
-18 -6 -26 -12 -14 -14 -14 -20 3 -6 15 -8 14 -8 -7 -1 -20 -3 -22 -11 -10 -7
12 -10 12 -10 1 0 -7 -6 -11 -14 -8 -8 3 -20 -1 -26 -8 -7 -8 -16 -12 -21 -9
-5 3 -9 2 -8 -3 3 -19 -2 -33 -12 -33 -5 0 -7 6 -4 13 4 6 -6 -1 -20 -18 -15
-16 -24 -23 -20 -15 4 8 -2 4 -13 -9 -17 -21 -20 -22 -28 -8 -8 15 -11 14 -23
-6 -13 -20 -13 -21 2 -8 10 7 17 9 17 4 0 -12 -50 -37 -69 -34 -8 1 -10 -2 -5
-11 6 -10 5 -10 -9 0 -14 12 -16 11 -12 -7 3 -19 1 -20 -17 -10 -16 9 -19 8
-13 -2 6 -9 3 -11 -8 -6 -11 4 -14 2 -11 -7 3 -8 1 -17 -5 -21 -6 -3 -11 0
-11 7 -1 7 -7 1 -15 -14 -11 -19 -21 -26 -36 -23 -12 3 -23 -3 -27 -13 -7 -16
-22 -24 -50 -25 -7 0 -10 -7 -7 -16 3 -8 3 -12 -1 -8 -4 4 -18 -3 -31 -15 -13
-12 -23 -18 -23 -13 0 4 -9 0 -21 -11 -17 -16 -22 -16 -30 -4 -8 12 -10 10 -6
-7 3 -13 1 -23 -4 -23 -5 0 -9 5 -9 10 0 6 -5 10 -11 10 -5 0 -8 -3 -6 -7 3
-5 -1 -13 -8 -20 -11 -10 -15 -10 -18 0 -3 7 -6 4 -6 -6 -1 -10 -5 -15 -11
-12 -5 3 -10 1 -10 -4 0 -6 -8 -11 -18 -11 -11 0 -24 -10 -31 -22 -6 -13 -10
-16 -7 -7 2 9 -2 16 -10 16 -7 0 -11 -4 -9 -8 3 -4 2 -14 -1 -23 -5 -12 -10
-14 -19 -6 -9 8 -14 5 -18 -9 -3 -13 -12 -18 -29 -16 -18 2 -25 -2 -24 -12 0
-9 -6 -18 -14 -20 -12 -4 -12 -3 -1 5 9 7 10 12 2 16 -6 4 -11 3 -11 -1 0 -10
-62 -49 -72 -45 -4 1 -5 -5 -2 -12 4 -10 -1 -14 -13 -12 -23 4 -81 -34 -87
-57 -3 -12 -10 -15 -22 -10 -11 4 -15 3 -11 -4 4 -6 0 -13 -8 -16 -10 -4 -12
-1 -8 10 5 11 3 14 -6 9 -7 -5 -11 -16 -8 -25 2 -10 -1 -18 -9 -18 -7 0 -11 4
-8 9 3 4 -2 8 -11 8 -10 0 -13 -5 -9 -12 5 -8 2 -9 -11 -4 -15 5 -16 4 -5 -9
11 -13 10 -14 -5 -9 -13 5 -16 4 -11 -4 5 -8 0 -12 -13 -12 -34 0 -53 -11 -41
-25 7 -8 5 -12 -5 -12 -8 0 -15 5 -15 11 0 6 -4 4 -9 -4 -6 -8 -7 -18 -5 -22
3 -4 -3 -5 -12 -1 -13 5 -15 3 -9 -8 7 -12 6 -12 -7 -1 -13 10 -18 9 -29 -5
-13 -17 -13 -17 6 -3 19 14 19 14 6 -3 -9 -12 -17 -14 -26 -7 -15 12 -25 3
-18 -16 3 -10 0 -12 -10 -8 -8 3 -18 0 -23 -7 -5 -8 -3 -10 6 -4 9 5 11 4 6
-3 -5 -9 -13 -9 -27 -2 -15 8 -19 8 -17 -2 2 -7 -2 -12 -9 -11 -7 2 -10 -4 -7
-12 4 -8 1 -15 -5 -15 -6 0 -11 6 -12 13 0 6 -5 1 -10 -12 -8 -19 -12 -21 -24
-11 -13 11 -14 10 -8 -5 5 -14 3 -17 -10 -12 -12 4 -17 1 -17 -11 0 -15 -2
-15 -10 -2 -9 14 -15 7 -11 -14 1 -5 -5 -6 -14 -3 -13 6 -19 -4 -16 -25 0 -4
-6 -5 -14 -2 -8 4 -12 11 -8 17 3 6 1 7 -6 3 -9 -6 -9 -11 -1 -21 9 -11 6 -13
-14 -11 -17 2 -26 -2 -26 -10 0 -8 -3 -13 -7 -13 -21 3 -33 -2 -27 -12 4 -7 1
-10 -7 -7 -8 3 -22 -6 -32 -19 -18 -23 -39 -25 -66 -9 -10 6 -12 5 -7 -3 4 -6
0 -14 -8 -17 -9 -3 -16 -11 -16 -17 0 -5 9 -2 20 8 11 10 20 13 20 8 0 -14
-29 -27 -52 -24 -11 1 -18 -4 -18 -13 0 -9 -9 -16 -21 -16 -11 0 -18 -4 -14
-9 3 -6 -4 -8 -16 -6 -14 3 -19 0 -16 -9 8 -19 -4 -28 -19 -15 -8 7 -14 6 -20
-2 -5 -8 -3 -9 6 -4 9 5 11 4 6 -3 -4 -7 -17 -12 -30 -12 -14 0 -40 -17 -64
-42 -23 -23 -42 -37 -42 -30 0 7 5 12 11 12 5 0 8 4 4 10 -6 10 -33 -9 -68
-47 -19 -21 -21 -21 -34 -5 -12 16 -13 16 -6 -2 5 -15 3 -17 -8 -11 -11 7 -11
5 1 -10 14 -17 14 -18 -6 -7 -18 9 -24 8 -35 -5 -12 -14 -12 -16 0 -8 10 6 12
4 6 -4 -4 -7 -18 -11 -31 -8 -20 3 -22 2 -13 -9 9 -11 7 -14 -10 -14 -15 0
-20 -4 -15 -12 6 -10 4 -10 -8 0 -13 10 -18 10 -24 1 -5 -8 -3 -9 6 -4 9 6 11
4 6 -4 -5 -7 -15 -10 -23 -7 -9 4 -11 2 -7 -6 5 -8 2 -9 -11 -4 -16 6 -16 4
-4 -10 13 -16 12 -16 -11 -4 -23 12 -24 12 -11 -4 12 -14 12 -16 -4 -10 -13 5
-16 4 -11 -4 5 -8 0 -12 -13 -12 -27 0 -51 -10 -51 -22 0 -6 8 -4 18 3 15 13
16 12 3 -4 -11 -13 -17 -15 -28 -6 -7 7 -16 9 -20 5 -3 -3 -1 -6 5 -6 6 0 9
-7 6 -15 -6 -14 -8 -13 -21 2 -8 10 -12 13 -9 7 3 -7 -3 -23 -15 -35 l-20 -24
11 25 11 25 -19 -22 c-11 -12 -23 -19 -27 -15 -5 4 -6 0 -2 -9 4 -12 0 -15
-19 -13 -15 1 -24 -3 -24 -11 0 -8 -5 -17 -12 -21 -8 -5 -9 -2 -4 11 5 15 4
16 -9 5 -8 -7 -12 -17 -8 -24 4 -6 -1 -5 -10 3 -16 12 -17 12 -10 -5 6 -17 5
-18 -12 -4 -11 9 -16 10 -11 3 4 -8 2 -13 -4 -13 -6 0 -8 -5 -4 -12 6 -10 4
-10 -8 0 -14 11 -18 10 -27 -6 -6 -11 -8 -22 -5 -25 3 -3 -4 -3 -17 0 -13 4
-20 2 -16 -3 3 -6 1 -16 -5 -24 -8 -12 -9 -12 -4 2 3 10 1 20 -3 23 -5 2 -11
-5 -15 -18 -5 -18 -8 -20 -16 -7 -8 13 -10 13 -10 -2 0 -9 -5 -20 -12 -24 -6
-4 -8 -3 -5 2 3 6 -3 11 -14 11 -10 1 -19 -3 -19 -8 0 -6 5 -7 11 -3 7 4 10 1
7 -7 -3 -8 -13 -13 -23 -11 -10 2 -14 -1 -10 -7 3 -6 1 -11 -5 -11 -6 0 -8 -5
-4 -12 4 -7 3 -8 -5 -4 -6 4 -8 13 -4 19 5 8 2 8 -9 0 -8 -7 -18 -9 -23 -5 -4
4 -3 -2 3 -14 10 -19 9 -21 -12 -17 -13 3 -27 -1 -31 -8 -6 -8 -4 -10 5 -4 9
5 11 4 6 -4 -6 -9 -11 -9 -21 -1 -10 8 -15 8 -21 -1 -5 -8 -3 -10 7 -4 10 6
11 5 4 -3 -6 -6 -20 -13 -32 -15 -12 -2 -31 -11 -41 -20 -10 -9 -23 -14 -27
-10 -5 5 -3 0 4 -10 12 -15 12 -17 -4 -11 -13 5 -16 4 -10 -5 6 -10 3 -11 -15
-1 -15 8 -20 8 -16 1 4 -6 2 -19 -4 -28 -11 -17 -11 -17 -6 0 3 9 1 17 -4 17
-9 0 -14 -15 -11 -33 1 -5 -3 -6 -9 -2 -6 3 -8 12 -5 18 3 7 -2 2 -11 -10 -20
-27 -36 -30 -28 -5 5 14 4 14 -4 2 -6 -8 -8 -18 -6 -22 3 -4 0 -8 -6 -8 -6 0
-8 -5 -4 -12 5 -9 2 -9 -9 1 -12 9 -17 10 -17 2 0 -7 -5 -9 -11 -5 -8 4 -9 -1
-4 -17 7 -21 6 -22 -9 -10 -13 11 -16 11 -16 1 0 -8 -3 -10 -7 -7 -3 4 -12 -1
-20 -11 -8 -9 -12 -11 -8 -5 4 8 1 11 -9 7 -8 -3 -12 -12 -9 -20 3 -8 1 -14
-5 -14 -6 0 -12 4 -14 9 -2 4 -12 -1 -23 -12 -11 -11 -14 -16 -6 -12 10 6 12
4 7 -4 -6 -9 -11 -9 -21 -1 -10 8 -15 8 -21 -1 -5 -8 -3 -9 6 -4 9 5 11 4 6
-3 -4 -7 -17 -12 -29 -12 -18 0 -19 -2 -7 -10 12 -8 10 -10 -8 -10 -13 0 -21
-3 -19 -7 3 -5 -2 -14 -10 -22 -13 -12 -14 -11 -9 10 l6 24 -11 -22 c-7 -13
-18 -23 -24 -23 -7 0 -12 -7 -11 -16 0 -9 -6 -19 -14 -21 -13 -4 -13 -3 0 7
13 10 13 11 0 7 -8 -2 -14 -12 -14 -21 1 -9 -4 -16 -11 -16 -6 0 -17 -10 -24
-22 -11 -23 -11 -23 -5 2 6 24 6 24 -9 5 -8 -11 -13 -24 -9 -29 3 -5 -2 -6
-13 -2 -15 5 -16 4 -6 -8 11 -13 9 -15 -8 -11 -11 2 -24 -1 -27 -7 -4 -7 -2
-8 4 -4 15 9 15 -14 1 -34 -9 -13 -10 -12 -5 3 3 9 1 17 -4 17 -6 0 -10 -5
-10 -10 0 -6 -9 -21 -20 -33 -11 -12 -18 -27 -16 -34 3 -7 -1 -13 -9 -13 -8 0
-15 -7 -15 -16 0 -8 4 -13 8 -10 4 2 8 -4 8 -14 0 -10 -5 -18 -11 -17 -5 1 -9
-4 -7 -12 2 -8 -3 -11 -10 -8 -7 2 -20 -3 -28 -11 -13 -14 -12 -15 2 -9 12 4
16 1 15 -13 -1 -15 -5 -17 -20 -8 -16 8 -17 7 -9 -9 11 -20 0 -48 -27 -71 -14
-12 -14 -13 4 -8 20 6 20 6 0 -9 -17 -14 -18 -17 -5 -25 13 -8 13 -10 -2 -10
-9 0 -20 -5 -24 -12 -4 -7 -3 -8 4 -4 20 12 13 -6 -10 -26 l-22 -19 27 5 c16
3 25 1 22 -5 -4 -5 -13 -9 -20 -9 -9 0 -12 -6 -8 -17 4 -11 3 -14 -5 -9 -7 4
-12 2 -12 -3 0 -6 6 -11 13 -11 8 0 7 -4 -3 -10 -13 -9 -13 -11 0 -20 10 -6
11 -10 3 -10 -7 0 -13 -7 -13 -16 0 -9 5 -12 13 -8 9 6 9 4 -1 -8 -10 -13 -10
-17 0 -21 8 -3 6 -6 -6 -6 -12 -1 -16 4 -13 14 4 8 3 17 -2 19 -4 3 -7 -15 -7
-39 1 -24 4 -41 7 -39 4 2 9 -3 12 -11 4 -8 1 -12 -7 -9 -8 3 -12 -5 -12 -26
0 -16 4 -30 9 -30 5 0 3 -8 -4 -17 -12 -14 -12 -16 2 -11 13 5 15 1 11 -20 -5
-24 -6 -24 -12 -7 -5 12 -7 0 -7 -32 0 -29 4 -53 9 -53 5 0 6 -6 1 -12 -12
-19 -12 -88 0 -81 6 4 7 1 2 -7 -4 -7 -9 -28 -11 -47 -2 -31 -1 -33 14 -21 12
9 12 6 -2 -10 -12 -13 -14 -22 -7 -22 7 0 9 -5 4 -12 -12 -20 -14 -48 -3 -48
6 0 10 -5 10 -11 0 -5 -4 -8 -8 -5 -5 3 -8 -5 -7 -17 1 -13 8 -22 17 -21 8 1
15 -5 15 -12 0 -9 -5 -10 -19 -3 -12 6 -18 6 -18 -1 0 -5 5 -10 11 -10 8 0 7
-6 -2 -16 -12 -15 -11 -16 11 -11 14 4 19 4 13 1 -7 -3 -13 -15 -14 -27 0 -21
-1 -21 -8 -2 -6 14 -8 4 -8 -32 0 -29 5 -53 10 -53 5 0 4 -7 -3 -15 -13 -15
-2 -21 16 -7 5 4 1 0 -8 -10 -22 -20 -23 -32 -3 -25 8 4 17 1 21 -5 4 -7 3 -8
-4 -4 -7 4 -12 2 -12 -4 0 -6 -4 -9 -9 -6 -11 7 -9 -13 3 -33 6 -10 5 -12 -2
-7 -16 10 -15 -7 1 -23 8 -10 9 -12 0 -7 -9 5 -12 -8 -12 -46 1 -29 1 -1020 1
-2203 0 -2383 -1 -2225 10 -2219 4 3 8 -2 8 -10 0 -9 5 -16 11 -16 6 0 9 -9 6
-20 -3 -11 -1 -20 3 -20 5 0 7 -11 6 -25 -2 -13 1 -22 5 -19 8 5 13 -10 10
-28 0 -5 5 -8 11 -8 9 0 8 -4 -2 -10 -13 -8 -12 -10 3 -10 9 0 17 -5 17 -11 0
-5 -4 -7 -10 -4 -6 3 -7 -1 -4 -9 3 -9 10 -14 14 -11 4 3 10 -2 13 -9 3 -8 1
-17 -6 -20 -7 -2 -6 -5 4 -5 9 -1 28 -25 44 -53 15 -29 37 -63 48 -75 11 -12
17 -29 14 -37 -4 -10 -1 -13 8 -9 9 3 18 -2 22 -12 3 -10 19 -30 35 -45 15
-15 28 -32 28 -39 0 -10 14 -15 34 -12 5 1 3 -6 -4 -16 -8 -10 -11 -15 -6 -11
5 4 15 0 23 -8 8 -8 19 -12 24 -9 5 4 9 -3 9 -14 0 -11 5 -23 12 -27 7 -4 8
-3 4 4 -4 7 -1 12 8 12 9 0 15 -4 14 -9 -2 -5 0 -9 5 -10 15 -1 35 -26 29 -36
-3 -5 3 -3 13 5 11 9 16 10 11 3 -4 -8 -2 -13 4 -13 6 0 8 -5 4 -12 -5 -9 -2
-8 9 1 15 12 17 12 11 -3 -5 -12 -2 -15 12 -9 11 4 15 3 11 -4 -4 -6 0 -14 9
-17 10 -4 13 -2 8 6 -4 6 7 3 24 -7 17 -10 33 -27 36 -38 4 -18 7 -19 22 -6
12 9 15 10 10 2 -4 -8 -2 -13 4 -13 6 0 8 -6 4 -12 -5 -10 -4 -10 6 -1 10 9
16 8 29 -6 9 -9 12 -10 6 -2 -8 12 -7 12 12 3 12 -7 25 -17 29 -24 4 -6 3 -8
-4 -4 -6 3 -14 1 -18 -6 -4 -7 -4 -10 1 -6 4 4 17 3 28 -3 14 -8 18 -8 12 1
-5 8 -1 8 13 -1 12 -7 19 -16 16 -20 -6 -10 26 -20 39 -12 6 4 8 0 4 -10 -3
-9 -3 -16 1 -16 22 4 32 -2 26 -14 -5 -8 -2 -7 9 2 15 12 17 12 12 -1 -5 -12
0 -15 19 -13 15 2 24 -1 20 -6 -3 -5 -10 -6 -16 -3 -7 4 -8 2 -4 -5 4 -6 12
-8 18 -5 6 4 13 2 17 -5 4 -6 19 -12 34 -13 14 -1 24 -4 22 -6 -10 -10 16 -41
30 -36 8 4 15 1 15 -5 0 -6 7 -11 16 -11 9 0 23 -8 31 -17 8 -10 12 -12 8 -6
-4 9 -1 11 10 7 11 -5 13 -10 5 -18 -7 -9 -4 -12 13 -11 12 1 28 -5 35 -14 8
-9 11 -10 7 -4 -4 9 -1 11 9 7 9 -3 13 -11 9 -17 -4 -6 0 -8 10 -4 9 3 19 1
23 -5 4 -6 3 -8 -3 -5 -5 3 -10 0 -10 -7 0 -8 9 -11 23 -8 13 2 30 -4 43 -17
12 -12 25 -21 31 -21 5 0 10 -4 10 -10 0 -5 6 -7 14 -4 8 3 16 -3 19 -15 3
-14 10 -19 21 -15 9 4 16 1 16 -6 0 -7 7 -10 15 -7 8 4 17 1 21 -5 4 -7 3 -8
-4 -4 -7 4 -12 2 -12 -3 0 -6 9 -11 20 -11 11 0 20 -4 20 -10 0 -5 6 -7 14 -4
8 3 21 -4 29 -16 9 -12 16 -17 19 -10 2 7 12 2 23 -12 13 -15 14 -18 3 -10
-12 10 -18 10 -24 1 -4 -7 -3 -9 4 -5 6 3 13 2 16 -3 4 -5 19 -7 34 -5 25 5
25 4 9 -8 -17 -13 -17 -14 2 -16 12 -1 30 -3 41 -4 11 -1 18 -8 16 -14 -7 -18
5 -25 21 -13 10 9 13 8 13 0 0 -7 5 -9 10 -6 6 4 9 1 8 -6 -3 -12 1 -14 33
-18 6 0 9 -7 6 -15 -4 -10 1 -13 18 -11 15 1 22 -2 18 -8 -4 -7 0 -8 12 -3 16
6 16 4 4 -11 -9 -11 -10 -14 -1 -9 6 4 12 3 12 -3 0 -6 6 -8 14 -5 8 3 17 0
21 -5 3 -6 11 -9 16 -6 5 4 9 2 9 -4 0 -5 -3 -11 -7 -14 -5 -2 -3 -2 4 -1 6 2
17 -4 24 -12 7 -8 18 -13 26 -10 12 5 18 -6 14 -27 -1 -5 3 -6 9 -2 6 3 8 12
4 18 -3 7 3 3 13 -9 10 -11 31 -24 46 -28 15 -3 27 -11 27 -16 0 -6 9 -19 20
-30 24 -24 27 -14 4 11 -16 17 -15 18 10 6 14 -7 24 -17 22 -24 -7 -18 6 -24
22 -10 10 7 13 8 9 1 -4 -7 2 -14 13 -17 14 -4 18 -10 14 -24 -6 -17 -6 -17 7
0 13 16 16 16 42 -8 15 -14 32 -23 37 -20 6 4 7 -1 3 -11 -4 -11 -3 -15 5 -10
6 3 16 -2 22 -11 10 -16 11 -16 6 -1 -3 12 -1 15 10 11 8 -3 13 -8 10 -10 -5
-6 19 -33 29 -33 3 0 3 6 0 13 -4 6 1 3 10 -8 9 -11 21 -20 28 -20 7 0 22 -8
35 -17 17 -11 20 -18 10 -22 -7 -3 -3 -4 10 -2 15 3 22 -1 22 -12 0 -13 2 -14
9 -4 7 11 9 11 14 -2 4 -9 12 -15 18 -14 6 2 14 -4 16 -12 4 -13 3 -13 -6 0
-6 8 -11 10 -11 4 0 -19 12 -24 33 -13 14 8 18 8 13 0 -4 -6 0 -11 9 -11 8 0
18 -7 21 -15 4 -8 10 -15 16 -15 5 0 6 6 2 13 -4 6 2 3 15 -7 12 -11 20 -25
17 -32 -4 -10 1 -11 19 -4 16 6 27 6 31 -2 4 -7 3 -8 -4 -4 -7 4 -12 3 -12 -2
0 -9 55 -26 72 -24 4 1 5 -7 3 -18 -3 -17 -1 -19 16 -9 17 9 21 7 26 -9 3 -14
11 -19 24 -17 16 3 19 0 15 -18 -3 -12 -3 -16 0 -9 8 17 24 15 24 -3 0 -9 6
-12 15 -9 9 4 23 -3 34 -15 10 -11 26 -21 35 -21 10 0 14 -4 11 -10 -3 -6 1
-7 9 -4 11 4 16 0 16 -12 0 -16 2 -17 10 -4 8 13 10 13 10 -2 0 -12 6 -16 21
-13 17 4 19 2 8 -11 -10 -12 -9 -13 6 -8 14 6 16 4 10 -7 -7 -11 -6 -12 6 -2
12 10 17 8 27 -8 7 -10 19 -19 27 -19 8 0 15 -6 15 -12 0 -9 4 -8 10 2 9 13
10 13 11 0 1 -8 1 -19 0 -23 -1 -5 4 -7 11 -4 22 7 48 -12 41 -31 -5 -14 -3
-13 11 3 10 11 15 15 12 9 -3 -7 1 -15 10 -18 8 -3 12 -11 8 -17 -4 -8 -3 -9
5 -5 6 4 9 13 5 19 -3 7 1 4 9 -5 8 -10 21 -18 29 -18 8 0 26 -10 40 -22 14
-13 31 -24 39 -26 7 -2 23 -14 35 -28 13 -13 27 -24 31 -24 4 0 -1 7 -11 15
-11 8 -15 15 -10 15 6 0 20 -11 32 -25 13 -15 28 -23 34 -19 8 5 9 2 5 -10 -5
-14 -3 -15 13 -6 15 8 20 6 25 -10 4 -11 11 -17 17 -14 8 5 9 1 4 -11 -5 -14
-4 -15 7 -7 10 9 17 7 27 -8 10 -14 16 -16 22 -7 5 8 8 6 8 -6 0 -10 5 -15 10
-12 5 3 10 1 10 -4 0 -6 6 -10 13 -9 6 2 11 -3 9 -9 -3 -17 15 -17 21 0 4 9 6
9 6 -1 1 -11 42 -34 66 -36 6 -1 10 -8 10 -16 0 -8 10 -16 23 -18 14 -2 20 -8
15 -15 -4 -7 2 -5 12 3 11 9 16 10 11 3 -4 -8 -2 -13 4 -13 6 0 9 -4 6 -9 -3
-5 2 -8 12 -7 10 0 16 -5 14 -13 -3 -12 -1 -12 14 0 12 9 15 9 10 2 -5 -9 0
-13 14 -13 14 0 24 -8 27 -21 4 -16 8 -17 14 -7 7 10 9 10 9 1 0 -7 7 -13 16
-13 9 0 12 -5 8 -12 -5 -7 -2 -9 9 -5 9 3 18 -1 21 -10 4 -8 13 -13 20 -10 16
6 40 -16 30 -26 -4 -4 3 -5 14 -2 16 3 19 0 15 -12 -4 -11 -2 -14 5 -9 7 4 12
2 12 -6 0 -10 2 -10 9 1 7 11 10 9 16 -9 5 -15 10 -19 15 -10 5 8 9 7 14 -5 3
-10 12 -15 20 -12 8 3 20 -2 28 -11 9 -11 10 -14 1 -8 -7 4 -13 5 -13 2 0 -6
55 -36 65 -36 3 0 3 5 -1 12 -4 7 -3 8 5 4 8 -5 9 -12 2 -20 -7 -8 -4 -12 10
-13 12 -1 17 3 13 10 -3 7 3 3 13 -9 10 -12 26 -24 36 -27 10 -4 16 -11 13
-16 -3 -5 3 -7 14 -4 15 4 20 0 20 -13 0 -16 2 -17 10 -4 8 12 10 12 11 -5 0
-11 3 -14 6 -7 4 9 10 7 23 -8 10 -11 24 -18 33 -14 8 3 18 1 22 -5 4 -7 -1
-9 -12 -6 -10 3 -6 -1 10 -8 15 -7 25 -16 21 -20 -4 -3 3 -4 16 -2 16 3 20 0
16 -11 -3 -8 -2 -13 3 -10 5 3 14 -1 22 -10 7 -8 22 -20 33 -25 16 -8 15 -6
-4 10 -14 11 -21 21 -17 21 5 0 23 -15 40 -32 17 -18 27 -27 23 -20 -6 10 -2
10 18 0 14 -6 26 -15 26 -20 0 -5 4 -6 10 -3 5 3 7 0 4 -9 -4 -11 1 -14 21
-12 17 2 25 -1 22 -8 -3 -7 4 -13 16 -13 11 -1 23 -7 27 -14 4 -6 13 -8 20 -4
7 4 13 -1 17 -14 3 -11 9 -18 14 -15 5 3 9 0 9 -6 0 -6 4 -9 9 -5 6 3 14 -3
20 -12 8 -14 10 -15 11 -3 0 13 2 13 9 0 6 -8 7 -18 4 -23 -3 -5 4 -4 16 2 12
7 21 8 20 4 -1 -4 -1 -15 0 -23 1 -13 2 -13 11 0 6 10 10 11 10 3 0 -7 7 -13
15 -13 8 0 15 -5 15 -11 0 -5 5 -7 10 -4 9 6 14 -8 11 -28 -1 -5 3 -6 9 -2 6
3 8 12 4 18 -3 7 3 2 14 -10 11 -13 26 -23 32 -23 6 0 19 -8 28 -18 10 -10 13
-12 8 -5 -6 10 -4 12 8 7 9 -3 16 -10 16 -16 0 -5 5 -6 10 -3 6 3 10 2 10 -4
0 -6 7 -8 15 -5 8 4 15 1 15 -5 0 -6 6 -11 14 -11 8 0 22 -7 30 -16 9 -8 16
-12 16 -8 0 3 6 2 13 -3 6 -6 25 -13 42 -17 16 -4 33 -12 36 -18 4 -6 20 -12
36 -14 16 -2 41 -8 55 -13 18 -7 29 -6 38 2 10 9 11 9 5 -2 -6 -10 2 -12 39
-10 25 2 46 0 46 -5 0 -4 6 -3 14 3 10 8 16 9 21 1 3 -6 11 -8 16 -5 5 4 9 0
9 -7 0 -8 3 -9 8 -3 4 6 23 12 42 13 56 5 91 12 153 29 50 14 60 14 68 2 7
-11 9 -11 9 3 0 16 65 46 77 34 3 -3 14 5 25 17 11 12 16 16 13 9 -6 -11 -3
-11 14 0 12 7 21 16 21 20 0 5 9 8 19 8 11 0 22 4 26 10 3 5 13 6 22 3 10 -4
14 -2 9 5 -3 6 -2 13 4 17 5 3 10 1 10 -5 0 -6 5 -8 10 -5 6 4 8 10 5 15 -6
10 23 22 35 15 5 -3 12 0 16 6 5 8 2 10 -7 5 -20 -11 22 23 45 36 14 8 17 7
11 -4 -3 -7 0 -5 9 6 8 10 20 15 27 10 8 -4 10 -3 5 4 -7 12 3 15 34 13 10 0
11 1 3 5 -18 8 -16 27 1 21 8 -3 17 1 20 8 3 9 12 12 22 8 11 -4 15 -3 10 5
-4 7 1 10 14 7 12 -2 20 1 20 10 0 8 5 17 12 21 7 4 8 3 4 -4 -4 -7 -2 -12 3
-12 6 0 11 5 11 10 0 6 6 10 13 10 7 0 18 9 25 21 11 17 16 19 29 7 13 -10 15
-10 9 0 -9 14 10 42 28 42 6 0 4 -5 -4 -10 -20 -13 -6 -13 24 1 13 6 27 21 30
32 4 16 8 18 18 9 10 -8 18 -8 28 0 12 8 11 9 -4 4 -16 -5 -17 -4 -6 9 7 8 16
12 21 9 5 -3 9 0 9 6 0 6 5 8 10 5 6 -3 13 1 16 9 3 9 10 13 15 10 5 -3 9 0 9
6 0 6 5 8 10 5 6 -3 10 -1 10 4 0 6 10 11 23 11 18 0 19 2 7 11 -12 9 -11 10
7 6 16 -4 29 3 44 21 11 15 17 21 14 14 -6 -12 -3 -12 16 -2 31 16 39 25 16
17 -12 -4 -16 -3 -11 4 3 6 15 9 25 6 11 -3 17 -1 13 4 -5 8 10 13 29 10 5 -1
6 3 3 8 -4 5 -2 12 4 16 5 3 10 1 10 -5 0 -6 5 -8 10 -5 6 4 8 10 5 15 -3 5 5
12 17 15 13 4 32 15 43 25 11 10 28 16 38 15 9 -2 15 1 12 5 -7 11 30 32 39
23 3 -3 6 -1 6 5 0 7 5 11 12 10 7 -2 12 3 13 11 0 8 7 16 15 18 13 4 13 3 0
-7 -13 -10 -12 -11 3 -6 10 3 21 6 23 6 3 0 2 5 -2 12 -5 7 0 9 14 6 16 -4 19
-2 15 10 -4 9 -2 13 4 9 6 -4 14 0 17 9 3 8 10 12 16 9 5 -3 10 -1 10 5 0 6 4
9 8 6 5 -3 16 4 26 15 11 13 25 19 36 16 11 -3 18 0 17 6 -1 6 8 13 21 15 12
2 22 8 22 13 0 6 -5 7 -12 3 -7 -4 -8 -3 -4 5 6 9 12 9 24 -1 10 -7 14 -9 10
-4 -12 15 15 35 34 25 14 -8 16 -6 11 6 -4 11 1 18 16 22 11 3 18 10 14 16 -3
5 -2 7 4 4 5 -3 24 3 42 14 18 11 37 16 43 13 6 -4 8 -3 4 4 -3 6 8 15 29 22
19 6 33 15 30 20 -3 5 11 14 30 20 19 6 33 16 30 21 -6 9 -1 11 28 13 6 1 19
9 27 18 8 9 22 18 30 20 8 2 21 11 28 20 7 9 21 15 32 13 13 -3 17 1 13 11 -4
10 0 12 13 7 13 -5 15 -3 9 7 -6 10 -4 12 8 7 12 -4 17 -1 17 11 0 15 2 15 10
2 8 -13 14 -8 12 11 -1 4 6 6 16 5 10 0 16 5 14 13 -3 12 -1 12 14 0 12 -9 15
-9 10 -1 -4 7 -2 12 4 12 6 0 8 5 4 11 -4 8 0 8 15 0 17 -9 21 -9 19 1 -2 7 5
12 15 12 14 -2 15 1 6 12 -10 12 -9 13 5 8 11 -4 23 1 32 12 9 11 13 13 9 7
-4 -9 -1 -11 9 -7 9 3 13 11 9 17 -4 6 0 8 11 4 9 -4 15 -3 13 1 -3 4 1 12 8
19 11 10 15 10 18 0 3 -7 6 -5 6 5 1 12 6 15 18 11 12 -5 14 -3 8 7 -6 10 -3
12 13 8 16 -4 19 -2 15 10 -5 11 -2 14 10 9 11 -4 17 -1 17 8 0 8 6 15 14 15
8 0 17 7 20 16 6 15 9 15 29 -2 12 -10 19 -15 15 -10 -4 5 -2 16 5 25 11 14
10 15 -8 1 -18 -14 -19 -14 -7 2 8 9 19 15 27 12 7 -3 16 0 21 7 5 8 3 10 -6
4 -9 -5 -11 -4 -6 4 4 6 11 9 16 6 5 -3 11 -1 15 5 3 5 15 10 25 10 10 0 22 5
26 12 5 7 3 8 -6 3 -9 -6 -11 -4 -6 4 5 7 14 10 22 7 8 -3 24 5 35 17 12 12
18 15 13 7 -7 -12 -3 -12 16 2 14 9 24 22 22 29 -2 9 1 9 13 -1 13 -11 15 -10
10 3 -4 8 -1 18 6 23 7 4 10 3 5 -4 -3 -6 -2 -13 4 -17 5 -3 10 0 10 8 0 8 7
20 15 27 13 11 14 10 9 -5 -5 -13 -4 -16 4 -11 7 4 12 13 12 21 0 8 5 17 12
21 6 4 8 3 5 -3 -3 -5 1 -10 10 -10 9 0 18 9 21 19 2 10 8 19 13 19 5 1 15 2
22 3 6 1 11 7 9 14 -1 7 1 11 5 11 26 -4 43 2 37 13 -5 9 -2 8 9 -1 15 -12 17
-12 11 4 -5 13 -4 16 4 11 7 -4 12 -2 12 4 0 7 7 9 16 6 9 -3 12 -2 9 5 -4 6
2 13 13 16 11 3 23 12 26 20 5 12 9 13 21 3 13 -11 14 -10 8 6 -6 17 -5 17 10
5 15 -12 17 -12 12 2 -4 8 -2 18 4 22 6 3 11 1 11 -4 0 -6 5 -11 12 -11 6 0 9
3 5 6 -9 9 19 34 38 34 22 0 55 18 55 31 0 6 -7 3 -16 -5 -22 -23 -30 -20 -9
4 10 11 21 18 25 15 4 -2 18 3 31 13 13 9 32 18 43 19 10 2 32 16 48 32 20 19
38 28 54 26 14 -1 22 0 19 3 -3 3 5 16 17 29 16 17 24 20 35 11 11 -9 12 -7 6
8 -6 17 -5 17 10 5 9 -7 18 -11 18 -7 1 3 2 10 3 16 0 5 7 15 15 22 9 8 11 8
7 1 -3 -6 -2 -15 4 -18 6 -4 10 -3 9 2 -3 19 2 33 12 33 5 0 7 -5 3 -12 -5 -7
-3 -8 5 -4 7 5 10 14 7 21 -3 9 2 12 14 10 10 -2 21 3 24 11 3 8 13 14 21 14
10 0 13 5 9 13 -5 7 0 6 11 -3 10 -8 16 -10 12 -4 -8 14 16 36 34 32 8 -2 13
3 11 10 -1 8 2 11 8 7 5 -3 10 -2 10 3 0 6 8 9 18 8 10 0 16 5 14 13 -3 12 -1
12 14 0 12 -9 15 -9 10 -1 -4 7 -2 12 4 12 6 0 8 5 4 12 -4 7 -3 8 4 4 15 -9
55 18 44 30 -4 4 1 2 11 -6 16 -11 18 -11 15 1 -2 9 4 13 16 11 10 -2 15 1 12
6 -7 12 22 24 36 15 6 -3 9 -2 6 3 -3 5 0 14 7 21 11 10 15 10 18 0 3 -7 6 -5
6 5 1 11 8 16 20 13 15 -3 18 1 14 12 -4 11 -2 14 5 9 7 -4 12 -2 12 5 0 7 3
9 7 6 3 -4 12 2 20 12 8 12 21 18 34 16 16 -3 19 0 14 13 -3 9 -3 13 1 9 4 -4
14 -1 22 6 13 10 15 9 8 -3 -4 -8 1 -5 10 7 9 13 25 23 36 23 10 0 16 5 13 10
-3 6 3 10 13 10 11 0 25 7 33 16 7 8 20 14 28 12 18 -5 53 26 43 38 -4 4 1 4
12 0 13 -4 17 -2 13 7 -3 8 1 14 9 14 7 0 10 -5 7 -11 -4 -6 1 -5 10 2 9 8 22
11 29 7 7 -4 5 0 -5 8 -17 14 -16 15 3 20 13 3 18 1 13 -5 -3 -7 -1 -8 5 -4 7
4 12 15 13 24 0 11 3 12 6 5 2 -7 9 -13 15 -13 6 0 8 6 5 14 -4 11 0 13 15 11
11 -3 18 -2 14 2 -11 11 25 42 42 36 11 -5 13 -3 7 8 -7 11 -5 11 10 -1 10 -8
16 -10 13 -5 -3 6 0 16 8 23 11 10 14 10 15 0 0 -7 5 -3 11 10 6 12 15 22 20
22 5 0 6 -6 3 -12 -4 -7 2 -2 13 11 12 15 24 21 32 16 8 -5 11 -4 6 3 -3 6 -2
13 4 17 5 3 10 1 10 -5 0 -7 5 -6 14 2 8 7 12 16 9 20 -2 5 5 8 17 8 14 0 19
4 14 13 -5 7 -1 7 12 -3 10 -8 16 -11 12 -6 -9 11 16 36 36 36 9 0 16 4 16 10
0 5 10 14 23 20 21 11 21 10 3 -4 -11 -9 -17 -18 -14 -22 4 -3 16 8 29 25 13
17 29 31 36 31 7 0 13 7 13 15 0 8 4 15 10 15 5 0 6 -8 3 -17 -7 -17 -6 -17
11 -1 9 10 14 23 10 29 -4 7 -3 9 4 5 6 -3 14 -1 17 5 4 5 13 8 20 5 9 -3 12
2 10 14 -2 12 1 17 10 14 7 -3 16 0 21 7 5 8 3 10 -6 4 -9 -6 -11 -4 -5 5 6
10 11 9 22 -5 16 -22 17 -12 2 16 -10 19 -9 20 11 9 20 -11 21 -10 11 9 -8 14
-8 22 1 27 7 5 8 3 3 -6 -5 -8 -3 -11 6 -8 8 3 13 11 11 17 -1 6 3 11 9 11 5
0 7 5 3 12 -5 8 -2 9 11 4 16 -6 16 -4 4 11 -12 15 -12 16 3 10 12 -4 18 0 20
16 2 14 10 21 20 21 10 -1 15 2 13 7 -3 4 3 13 12 19 17 11 17 11 1 6 -15 -5
-16 -3 -5 14 6 11 15 20 20 20 4 0 5 -5 1 -12 -4 -6 -3 -8 4 -4 6 3 9 15 7 25
-2 11 3 22 11 25 9 3 13 10 9 15 -3 5 -1 12 5 16 6 4 8 12 4 18 -3 7 2 3 10
-7 18 -22 21 -14 6 15 -10 19 -3 25 24 20 5 -1 4 5 -4 13 -7 9 -8 16 -2 16 5
0 9 8 8 18 0 9 4 16 10 15 7 -1 10 6 7 18 -4 12 0 25 8 30 11 7 11 9 1 9 -7 0
-10 5 -7 10 5 8 12 7 23 -2 12 -9 11 -6 -2 10 -20 23 -10 31 14 9 12 -10 12
-9 2 4 -6 9 -8 20 -4 24 4 5 2 5 -5 2 -8 -5 -8 -1 0 17 7 13 16 22 21 19 5 -4
6 -1 2 6 -4 6 -11 9 -15 7 -4 -3 -8 1 -8 9 0 8 7 15 16 15 14 0 14 2 1 10 -13
9 -13 10 0 10 13 0 13 1 0 10 -14 9 -7 14 13 11 5 -1 6 3 2 9 -3 5 0 10 7 11
7 1 2 5 -12 9 -16 5 -19 8 -8 9 9 1 20 6 24 13 4 6 3 8 -3 5 -6 -4 -14 0 -17
9 -3 8 -2 13 3 10 5 -3 11 1 14 9 4 8 1 12 -6 9 -17 -6 -20 298 -3 308 8 6 7
8 -1 8 -7 0 -13 7 -13 16 0 9 5 12 13 8 9 -6 9 -4 1 7 -8 10 -11 561 -10 1971
1 1297 -2 1959 -9 1962 -6 3 -4 9 4 14 10 7 10 11 1 17 -9 6 -9 10 1 16 11 7
11 9 1 9 -10 0 -10 5 -2 20 6 12 7 20 1 20 -6 0 -6 11 -1 29 6 21 5 31 -3 35
-9 3 -8 7 2 14 10 7 10 11 1 17 -9 6 -9 10 1 16 11 7 11 9 1 9 -10 0 -10 5 -2
20 7 13 7 20 1 20 -7 0 -7 9 -1 25 5 14 6 25 2 25 -4 0 -8 9 -8 20 0 11 5 20
11 20 5 0 3 5 -5 10 -13 9 -13 10 0 10 12 0 12 2 2 9 -8 4 -14 12 -14 16 0 4
6 12 14 16 11 7 11 9 -1 9 -11 0 -11 3 -1 15 10 12 10 15 -1 15 -12 0 -12 2 0
9 9 6 10 10 2 16 -9 5 -9 10 0 21 6 8 8 14 3 14 -5 0 -9 13 -9 29 0 16 3 27 8
24 4 -2 7 0 7 6 0 5 -4 12 -9 15 -8 5 -8 26 -1 46 6 14 4 47 -2 62 -5 10 -3
18 5 21 9 4 9 6 0 6 -7 1 -13 6 -13 12 0 5 5 7 12 3 7 -5 8 -3 3 6 -12 19 -13
60 -2 60 5 0 4 7 -3 15 -10 12 -10 15 1 15 12 0 12 2 0 9 -9 6 -10 10 -2 16 7
4 8 12 3 18 -10 14 -10 27 1 44 4 6 2 15 -4 19 -8 5 -9 3 -4 -6 5 -8 4 -11 -2
-7 -13 8 -4 67 10 67 6 0 7 3 4 6 -4 4 -14 1 -24 -7 -9 -8 -14 -9 -10 -3 4 7
0 15 -9 18 -14 5 -14 8 0 28 19 27 21 44 3 29 -11 -8 -13 -6 -12 9 1 11 4 23
8 26 13 14 7 26 -7 15 -12 -10 -13 -8 -9 10 5 17 3 20 -8 14 -12 -8 -12 -6 0
8 11 14 11 17 0 18 -8 1 -18 1 -22 0 -5 -1 -6 3 -2 8 3 6 13 8 23 5 9 -3 6 2
-8 10 -16 10 -19 15 -10 16 10 0 11 3 4 8 -12 7 -29 52 -26 65 3 12 -16 8 -21
-5 -3 -7 -5 -4 -6 7 -2 42 -5 55 -12 55 -5 0 -5 7 -2 17 5 12 3 14 -7 8 -10
-6 -12 -4 -7 8 3 10 2 17 -4 17 -6 0 -7 6 -3 13 5 7 0 6 -11 -3 -11 -9 -16
-10 -11 -2 4 7 2 12 -6 12 -9 0 -9 3 2 10 13 8 12 10 -2 10 -10 0 -18 5 -18
11 0 5 5 7 12 3 7 -4 8 -3 4 4 -4 6 -13 9 -21 5 -10 -3 -15 1 -15 12 0 9 -4
13 -10 10 -5 -3 -10 3 -10 14 0 12 -5 21 -11 21 -16 0 -50 41 -43 51 3 5 -2 6
-10 3 -10 -4 -20 3 -27 20 -9 19 -15 23 -25 15 -8 -7 -14 -6 -20 2 -4 8 -3 9
4 5 18 -11 14 10 -5 25 -14 12 -16 12 -9 -1 5 -9 2 -8 -7 2 -11 14 -16 15 -27
5 -10 -10 -10 -8 -1 10 10 19 8 21 -14 18 -28 -3 -51 18 -39 36 4 7 3 9 -3 6
-6 -4 -16 0 -23 8 -10 12 -17 12 -34 3 -18 -10 -19 -9 -8 4 10 13 10 18 1 24
-8 4 -9 3 -5 -4 14 -23 -9 -12 -27 12 -11 15 -26 23 -37 21 -14 -3 -17 1 -13
13 5 14 3 14 -18 -3 -13 -11 -18 -13 -11 -5 19 22 14 30 -14 20 -16 -7 -23 -7
-19 0 3 5 -4 20 -16 32 -12 13 -19 18 -16 13 3 -6 -3 -11 -13 -11 -14 0 -16 3
-8 13 8 11 7 12 -7 7 -14 -6 -16 -4 -10 7 8 12 6 12 -8 1 -14 -12 -16 -11 -12
7 2 12 0 19 -5 16 -14 -8 -40 6 -33 19 4 6 -2 4 -12 -4 -11 -9 -16 -10 -11 -2
4 7 1 12 -8 12 -9 0 -16 5 -16 10 0 6 -6 10 -13 10 -7 0 -18 9 -25 21 -10 16
-16 18 -27 9 -10 -8 -15 -5 -23 17 -8 22 -11 24 -12 8 l-1 -20 -8 20 c-5 11
-13 21 -20 21 -6 1 -16 2 -22 3 -5 0 -7 7 -3 14 6 9 4 9 -8 -1 -13 -10 -18
-10 -24 -1 -5 8 -3 9 6 4 9 -5 11 -4 6 4 -4 6 -15 10 -24 9 -11 -2 -16 3 -15
15 0 10 -2 16 -5 13 -3 -3 -11 -1 -18 5 -8 6 -21 8 -30 5 -14 -5 -15 -4 -4 9
7 9 10 18 6 22 -3 3 -6 2 -6 -3 0 -5 -11 -10 -25 -10 -20 -2 -23 1 -15 11 8
10 8 15 -1 21 -8 4 -9 3 -5 -4 4 -7 1 -12 -9 -12 -9 0 -13 5 -10 10 3 6 -1 10
-10 10 -9 0 -13 4 -10 10 4 6 -1 7 -11 3 -12 -4 -15 -3 -10 5 4 7 2 10 -7 6
-8 -3 -19 5 -26 18 -9 18 -11 19 -6 3 5 -19 4 -19 -9 -2 -7 9 -21 17 -30 17
-10 0 -15 4 -12 8 3 5 -9 17 -26 27 -17 10 -28 13 -24 7 3 -6 2 -14 -4 -17 -6
-4 -10 -3 -9 2 4 22 -3 33 -19 33 -10 0 -23 5 -30 12 -9 9 -12 9 -12 -2 0 -7
-3 -10 -6 -7 -4 4 -1 14 7 24 9 11 10 14 2 9 -8 -4 -13 -2 -13 6 0 9 -3 9 -10
-2 -8 -12 -10 -12 -10 5 0 17 -2 17 -10 5 -6 -10 -10 -11 -10 -2 0 6 -6 12
-13 12 -17 0 -59 39 -53 48 3 4 -5 9 -17 10 -12 1 -29 4 -37 5 -23 5 -80 41
-80 51 0 5 8 2 18 -5 14 -11 13 -10 -2 9 -19 22 -32 30 -21 13 3 -5 1 -12 -5
-16 -9 -5 -14 6 -12 26 1 3 -10 5 -24 3 -15 -1 -22 2 -17 9 4 6 0 8 -10 4 -12
-4 -14 -2 -10 11 6 14 4 15 -9 4 -13 -10 -17 -10 -22 3 -3 10 -11 13 -18 9
-10 -6 -10 -5 0 8 10 13 9 15 -14 12 -18 -2 -24 1 -20 11 3 9 0 12 -10 8 -7
-3 -14 -10 -14 -16 0 -6 -3 -7 -6 -4 -4 4 -1 13 6 22 11 13 10 14 -5 9 -12 -5
-16 -4 -12 3 4 6 0 14 -9 17 -8 3 -13 2 -9 -3 6 -11 -22 -8 -32 4 -4 4 -2 5 5
1 15 -9 16 20 0 30 -7 4 -8 3 -4 -4 4 -7 3 -12 -3 -12 -5 0 -18 -3 -28 -6 -17
-5 -17 -5 0 6 21 13 14 30 -14 30 -10 0 -19 5 -19 10 0 6 -5 10 -11 10 -5 0
-7 -6 -4 -12 4 -7 -2 -3 -13 10 -11 12 -25 22 -31 22 -10 0 -15 14 -12 33 1 4
-8 3 -20 -4 -17 -9 -20 -8 -14 2 6 9 3 11 -8 6 -9 -3 -19 -2 -23 4 -3 6 -13 8
-23 4 -13 -5 -14 -4 -3 6 18 19 15 31 -7 20 -15 -9 -18 -7 -17 12 1 18 -4 22
-27 20 -18 -1 -25 2 -21 9 5 7 0 9 -14 6 -14 -4 -20 -2 -15 5 4 6 0 8 -10 4
-12 -4 -14 -2 -10 11 6 15 5 15 -10 3 -15 -12 -17 -12 -12 1 4 9 0 15 -10 16
-8 1 -22 3 -30 4 -8 1 -12 4 -10 8 2 3 0 12 -6 20 -6 10 -9 11 -9 3 0 -7 -5
-13 -11 -13 -5 0 -7 5 -4 10 3 6 1 10 -5 10 -6 0 -8 5 -4 13 5 7 1 7 -12 -3
-10 -8 -16 -10 -12 -6 5 5 -1 16 -12 23 -11 8 -17 19 -14 25 4 7 2 8 -5 4 -9
-6 -9 -12 1 -24 11 -15 11 -15 -3 -5 -9 7 -19 10 -22 7 -3 -4 -4 6 -1 22 3 22
2 25 -6 14 -8 -12 -12 -13 -19 -2 -4 8 -12 14 -17 15 -5 1 -8 6 -6 11 2 5 -5
3 -14 -5 -15 -13 -16 -12 -9 11 6 20 5 23 -6 13 -15 -15 -33 -17 -25 -4 3 5
-4 11 -15 14 -12 3 -18 10 -14 16 10 16 -1 13 -20 -5 -13 -13 -16 -14 -15 -3
5 29 0 38 -17 32 -13 -5 -15 -3 -9 12 4 11 4 16 0 13 -4 -4 -16 -3 -27 3 -14
8 -18 8 -13 0 4 -6 2 -11 -5 -11 -7 0 -9 8 -6 21 4 16 3 19 -5 11 -8 -8 -15
-6 -27 6 -9 10 -13 13 -8 8 13 -18 7 -28 -8 -12 -8 8 -15 19 -15 24 0 12 -30
26 -49 23 -8 -1 -10 2 -5 10 4 7 3 10 -4 6 -15 -10 -43 3 -35 15 4 7 -4 9 -21
6 -21 -4 -24 -3 -15 8 9 11 8 14 -5 14 -10 0 -15 4 -11 9 3 5 -4 13 -15 16
-16 5 -18 10 -10 20 8 9 5 14 -10 18 -11 3 -20 11 -20 19 0 10 3 9 10 -2 7
-10 10 -11 10 -2 0 7 -7 15 -15 18 -8 4 -12 11 -8 18 4 6 -2 4 -12 -4 -11 -9
-16 -10 -11 -2 4 7 2 12 -4 12 -6 0 -8 5 -4 12 5 8 2 9 -11 4 -16 -6 -16 -4
-4 10 13 16 12 16 -11 4 -24 -13 -24 -12 -10 5 9 11 10 16 3 11 -8 -4 -13 -2
-13 6 0 9 -3 9 -10 -2 -8 -13 -10 -13 -10 1 0 9 -9 19 -20 22 -12 3 -18 1 -14
-5 4 -6 -3 -5 -15 2 -12 6 -35 9 -51 6 -18 -2 -34 1 -41 10 -9 11 -15 11 -25
3 -10 -8 -14 -8 -14 0 0 6 -12 11 -26 11 -14 0 -23 4 -20 8 2 4 -5 14 -17 22
-19 11 -20 11 -10 -1 10 -12 8 -15 -6 -15 -10 0 -18 6 -17 13 1 6 -3 13 -9 14
-13 2 -41 41 -37 52 1 5 -2 5 -8 2 -8 -5 -5 -14 7 -28 17 -21 16 -21 -8 1 -14
12 -30 22 -35 22 -5 0 -15 9 -22 20 -7 12 -18 18 -24 14 -6 -4 -17 1 -24 10
-7 10 -16 18 -21 19 -4 1 -7 5 -6 9 2 4 -5 4 -14 1 -11 -4 -14 -3 -9 5 10 16
-7 15 -23 0 -10 -11 -12 -10 -11 2 4 27 0 40 -11 40 -5 0 -8 -4 -4 -9 3 -5 0
-13 -6 -17 -8 -4 -9 -3 -5 4 4 7 2 12 -4 12 -6 0 -8 5 -5 10 3 6 -4 10 -15 10
-16 0 -20 5 -16 15 3 8 2 14 -2 14 -4 -1 -10 0 -14 1 -13 4 -27 7 -39 9 -5 0
-7 6 -4 11 6 9 -1 12 -22 9 -3 0 -10 7 -15 16 -8 13 -12 14 -26 3 -13 -11 -15
-11 -9 4 3 10 3 17 -1 17 -20 -3 -33 2 -27 11 3 6 -1 7 -9 4 -9 -3 -14 -10
-11 -14 3 -5 0 -12 -6 -16 -7 -4 -9 -3 -5 4 3 6 2 13 -3 17 -6 3 -7 13 -4 23
6 15 5 15 -10 3 -15 -12 -17 -12 -11 2 4 12 0 15 -20 13 -14 -2 -23 0 -21 4 4
7 -31 50 -42 50 -3 0 1 -8 10 -18 29 -32 18 -33 -14 -1 -17 17 -35 26 -42 22
-8 -4 -7 -1 1 9 11 14 10 16 -9 11 -15 -4 -20 -3 -15 5 5 8 -1 12 -14 12 -12
0 -19 4 -16 9 6 9 -14 21 -43 27 -8 1 -18 10 -23 18 -5 8 -17 13 -28 11 -19
-4 -28 9 -12 18 4 2 2 3 -4 1 -6 -1 -28 11 -48 28 -20 16 -36 26 -36 22 0 -4
8 -13 18 -21 15 -13 15 -13 -5 -3 -20 9 -27 21 -25 41 1 3 -6 6 -14 6 -10 0
-11 -4 -4 -11 5 -5 10 -14 10 -20 0 -5 -12 4 -26 20 -15 16 -23 24 -20 17 3
-6 1 -15 -5 -19 -7 -4 -9 -3 -5 4 3 6 2 13 -3 17 -6 3 -7 13 -4 23 6 15 5 15
-10 3 -14 -11 -18 -11 -23 3 -5 12 -10 14 -19 6 -11 -9 -12 -6 -8 12 5 23 5
23 -10 3 -16 -20 -16 -20 -10 3 3 13 1 22 -6 22 -7 0 -10 -4 -6 -9 3 -5 0 -13
-6 -17 -7 -4 -9 -3 -5 4 3 6 -3 13 -14 17 -11 3 -20 14 -20 23 -1 15 -3 14
-16 -3 -15 -19 -15 -19 -11 5 4 21 1 26 -16 28 -18 1 -19 -1 -7 -9 13 -9 13
-10 0 -6 -8 2 -14 10 -13 16 2 6 -6 11 -17 11 -11 0 -20 5 -20 11 0 5 6 7 13
3 7 -4 9 -3 4 2 -5 5 -12 9 -15 9 -4 1 -17 6 -28 13 -12 6 -25 8 -29 4 -5 -4
-5 1 -2 10 3 10 -1 22 -11 30 -15 12 -16 11 -3 -4 10 -14 11 -18 1 -18 -7 0
-19 8 -26 18 -13 16 -14 16 -9 -3 4 -15 3 -15 -7 3 -7 15 -18 22 -29 19 -11
-3 -16 0 -13 8 3 7 0 16 -7 21 -7 4 -10 3 -5 -4 3 -6 2 -13 -4 -17 -5 -3 -10
3 -10 14 0 12 -5 21 -11 21 -5 0 -7 5 -3 12 4 7 3 8 -4 4 -6 -4 -10 -12 -8
-19 1 -7 1 -9 -1 -4 -3 4 -9 5 -13 2 -5 -3 -7 4 -5 15 2 11 0 18 -5 15 -5 -3
-12 0 -15 6 -4 5 -13 8 -21 5 -17 -7 -19 10 -1 18 8 4 7 5 -3 5 -35 -3 -51 2
-45 11 4 6 1 9 -7 8 -7 -2 -12 2 -11 8 1 6 -5 11 -13 11 -10 0 -11 -4 -4 -11
5 -5 10 -14 10 -19 0 -5 -8 -1 -17 9 -10 10 -18 21 -18 25 0 4 -4 11 -9 16 -5
4 -6 3 -3 -3 4 -7 -2 -14 -14 -17 -17 -5 -18 -3 -7 11 11 13 10 15 -9 10 -13
-4 -26 -1 -30 4 -4 7 -1 8 7 3 9 -5 11 -4 6 4 -5 8 -12 9 -19 2 -13 -10 -61
21 -51 32 3 3 -3 3 -15 0 -13 -3 -21 -1 -21 8 0 7 -3 9 -7 6 -3 -4 -11 -3 -17
2 -14 10 -57 21 -52 13 2 -4 -6 -7 -19 -7 -13 0 -21 3 -19 6 2 4 -3 12 -11 19
-13 11 -14 10 -9 -4 5 -12 2 -15 -10 -10 -9 3 -16 10 -16 15 0 5 -10 9 -22 9
-13 0 -42 1 -64 2 -27 2 -40 -1 -37 -8 2 -7 -7 -10 -24 -9 -16 1 -27 7 -25 14
1 7 -2 9 -8 6 -6 -4 -9 -14 -6 -24 5 -14 4 -14 -7 1 -11 14 -16 15 -27 5 -10
-10 -11 -9 -5 2 6 11 3 13 -12 9 -11 -3 -28 -1 -38 5 -15 8 -17 7 -12 -7 5
-12 3 -16 -5 -13 -7 2 -12 10 -10 16 3 14 -5 14 -13 1z m445 -46 c0 -8 -19
-13 -24 -6 -3 5 1 9 9 9 8 0 15 -2 15 -3z m-894 -156 c4 -7 3 -8 -4 -4 -7 4
-12 2 -12 -5 0 -7 -3 -10 -6 -6 -6 5 3 27 11 27 2 0 7 -5 11 -12z m1222 -13
c-3 -3 -9 2 -12 12 -6 14 -5 15 5 6 7 -7 10 -15 7 -18z m-1565 -190 c-3 -9 -8
-14 -10 -11 -3 3 -2 9 2 15 9 16 15 13 8 -4z m2187 -175 c0 -5 -5 -10 -11 -10
-5 0 -7 5 -4 10 3 6 8 10 11 10 2 0 4 -4 4 -10z m120 -71 c0 -5 -4 -9 -8 -9
-5 0 -9 7 -9 15 0 8 4 12 9 9 4 -3 8 -9 8 -15z m-2984 -161 c4 -6 3 -8 -4 -4
-6 3 -15 -2 -21 -11 -6 -10 -11 -13 -11 -7 0 9 19 34 26 34 2 0 6 -5 10 -12z
m3324 -38 c0 -5 -5 -10 -11 -10 -5 0 -7 5 -4 10 3 6 8 10 11 10 2 0 4 -4 4
-10z m-4166 -468 c3 -5 -1 -9 -9 -9 -8 0 -12 4 -9 9 3 4 7 8 9 8 2 0 6 -4 9
-8z m-41 -27 c-3 -9 -8 -14 -10 -11 -3 3 -2 9 2 15 9 16 15 13 8 -4z m-48 -25
c4 -6 1 -9 -7 -8 -7 2 -12 -3 -10 -10 1 -8 -2 -11 -9 -6 -7 4 -18 -1 -26 -11
-7 -11 -13 -14 -13 -8 0 6 12 21 28 32 32 24 29 23 37 11z m5196 -47 c12 -16
12 -17 -2 -6 -9 7 -20 9 -24 5 -5 -4 -5 -1 -1 6 9 16 11 15 27 -5z m603 -355
c-3 -4 -9 -8 -15 -8 -5 0 -9 4 -9 8 0 5 7 9 15 9 8 0 12 -4 9 -9z m-6809 -208
c-3 -5 -11 -10 -16 -10 -6 0 -7 5 -4 10 3 6 11 10 16 10 6 0 7 -4 4 -10z
m-112 -65 c-3 -9 -8 -14 -10 -11 -3 3 -2 9 2 15 9 16 15 13 8 -4z m7562 -116
c11 -16 1 -19 -13 -3 -7 8 -8 14 -3 14 5 0 13 -5 16 -11z m230 -139 c3 -5 1
-10 -4 -10 -6 0 -11 5 -11 10 0 6 2 10 4 10 3 0 8 -4 11 -10z m250 -150 c3 -6
-1 -7 -9 -4 -18 7 -21 14 -7 14 6 0 13 -4 16 -10z m115 -70 c0 -5 -5 -10 -11
-10 -5 0 -7 5 -4 10 3 6 8 10 11 10 2 0 4 -4 4 -10z m78 -55 c-3 -3 -9 2 -12
12 -6 14 -5 15 5 6 7 -7 10 -15 7 -18z m-9173 -34 c-3 -6 -11 -11 -17 -11 -6
0 -6 6 2 15 14 17 26 13 15 -4z m9576 -198 c13 -16 12 -17 -3 -4 -17 13 -22
21 -14 21 2 0 10 -8 17 -17z m-10406 -821 c-3 -3 -11 0 -18 7 -9 10 -8 11 6 5
10 -3 15 -9 12 -12z m-11 -68 c3 -8 2 -12 -4 -9 -6 3 -10 10 -10 16 0 14 7 11
14 -7z m6 -114 c0 -5 -5 -10 -11 -10 -5 0 -7 5 -4 10 3 6 8 10 11 10 2 0 4 -4
4 -10z m1 -87 c13 -16 12 -17 -3 -4 -17 13 -22 21 -14 21 2 0 10 -8 17 -17z
m3 -99 c3 -8 2 -12 -4 -9 -6 3 -10 10 -10 16 0 14 7 11 14 -7z m1 -294 c-3 -5
-11 -10 -16 -10 -6 0 -7 5 -4 10 3 6 11 10 16 10 6 0 7 -4 4 -10z m5 -24 c0
-2 -7 -7 -16 -10 -8 -3 -12 -2 -9 4 6 10 25 14 25 6z m9885 -5616 c-3 -5 -12
-10 -18 -10 -7 0 -6 4 3 10 19 12 23 12 15 0z"/>
<path d="M4816 11913 c-6 -14 -5 -15 5 -6 7 7 10 15 7 18 -3 3 -9 -2 -12 -12z"/>
<path d="M4675 11829 c-4 -6 -5 -12 -2 -15 2 -3 7 2 10 11 7 17 1 20 -8 4z"/>
<path d="M4520 11729 c0 -5 5 -7 10 -4 6 3 10 8 10 11 0 2 -4 4 -10 4 -5 0
-10 -5 -10 -11z"/>
<path d="M4486 11713 c-6 -14 -5 -15 5 -6 7 7 10 15 7 18 -3 3 -9 -2 -12 -12z"/>
<path d="M8896 11707 c3 -10 9 -15 12 -12 3 3 0 11 -7 18 -10 9 -11 8 -5 -6z"/>
<path d="M3320 11015 c-7 -8 -8 -15 -2 -15 5 0 15 7 22 15 7 8 8 15 2 15 -5 0
-15 -7 -22 -15z"/>
<path d="M9955 11020 c3 -5 8 -10 11 -10 2 0 4 5 4 10 0 6 -5 10 -11 10 -5 0
-7 -4 -4 -10z"/>
<path d="M10450 10726 c0 -2 6 -9 14 -15 11 -9 16 -9 22 0 4 8 3 9 -4 5 -7 -4
-12 -2 -12 3 0 6 -4 11 -10 11 -5 0 -10 -2 -10 -4z"/>
<path d="M10560 10666 c0 -2 8 -10 18 -17 15 -13 16 -12 3 4 -13 16 -21 21
-21 13z"/>
<path d="M11646 9998 c3 -5 10 -6 15 -3 13 9 11 12 -6 12 -8 0 -12 -4 -9 -9z"/>
<path d="M1302 9665 c4 -4 3 -14 -3 -22 -7 -8 -8 -13 -1 -13 15 0 23 28 9 36
-7 4 -9 4 -5 -1z"/>
<path d="M1247 9536 c-10 -8 -14 -16 -10 -19 5 -3 14 3 21 14 14 22 13 23 -11
5z"/>
<path d="M12085 9350 c-3 -5 -2 -10 4 -10 5 0 13 5 16 10 3 6 2 10 -4 10 -5 0
-13 -4 -16 -10z"/>
<path d="M1353 3495 c0 -8 4 -12 9 -9 5 3 6 10 3 15 -9 13 -12 11 -12 -6z"/>
<path d="M1730 3171 c0 -5 7 -12 16 -15 14 -5 15 -4 4 9 -14 17 -20 19 -20 6z"/>
<path d="M11295 3021 c-3 -5 -2 -12 3 -15 5 -3 9 1 9 9 0 17 -3 19 -12 6z"/>
<path d="M2610 2640 c0 -5 5 -10 11 -10 5 0 7 5 4 10 -3 6 -8 10 -11 10 -2 0
-4 -4 -4 -10z"/>
<path d="M2835 2500 c-3 -5 -1 -10 4 -10 6 0 11 5 11 10 0 6 -2 10 -4 10 -3 0
-8 -4 -11 -10z"/>
<path d="M10260 2395 c-7 -9 -11 -17 -9 -20 3 -2 10 5 17 15 14 24 10 26 -8 5z"/>
<path d="M10185 2351 c-3 -5 -2 -12 3 -15 5 -3 9 1 9 9 0 17 -3 19 -12 6z"/>
<path d="M3117 2329 c7 -7 15 -10 18 -7 3 3 -2 9 -12 12 -14 6 -15 5 -6 -5z"/>
<path d="M10080 2285 c-7 -9 -8 -15 -2 -15 5 0 12 7 16 15 3 8 4 15 2 15 -2 0
-9 -7 -16 -15z"/>
<path d="M4350 1596 c0 -2 7 -7 16 -10 8 -3 12 -2 9 4 -6 10 -25 14 -25 6z"/>
<path d="M4428 1543 c7 -3 16 -2 19 1 4 3 -2 6 -13 5 -11 0 -14 -3 -6 -6z"/>
<path d="M5075 1160 c-3 -5 -1 -10 4 -10 6 0 11 5 11 10 0 6 -2 10 -4 10 -3 0
-8 -4 -11 -10z"/>
<path d="M7255 589 c-4 -6 -5 -12 -2 -15 2 -3 7 2 10 11 7 17 1 20 -8 4z"/>
</g>
</svg>
