<?xml version="1.0" encoding="UTF-8"?>
<!DOCTYPE svg PUBLIC "-//W3C//DTD SVG 1.1//EN" "http://www.w3.org/Graphics/SVG/1.1/DTD/svg11.dtd">
<svg xmlns="http://www.w3.org/2000/svg" version="1.1" width="32px" height="32px" style="shape-rendering:geometricPrecision; text-rendering:geometricPrecision; image-rendering:optimizeQuality; fill-rule:evenodd; clip-rule:evenodd" xmlns:xlink="http://www.w3.org/1999/xlink">
<g><path style="opacity:0.514" fill="#000000" d="M 26.5,-0.5 C 28.1667,-0.5 29.8333,-0.5 31.5,-0.5C 31.5,1.16667 31.5,2.83333 31.5,4.5C 29.5384,10.9943 25.705,16.3277 20,20.5C 20.4862,25.343 18.4862,28.6763 14,30.5C 13.0766,29.2412 12.2432,27.9079 11.5,26.5C 8.27954,26.7803 6.27954,28.4469 5.5,31.5C 3.5,31.5 1.5,31.5 -0.5,31.5C -0.5,29.5 -0.5,27.5 -0.5,25.5C 2.55308,24.7205 4.21975,22.7205 4.5,19.5C -0.096745,17.6152 -0.096745,15.1152 4.5,12C 6.5,11.6667 8.5,11.3333 10.5,11C 14.6723,5.29496 20.0057,1.46162 26.5,-0.5 Z M 24.5,2.5 C 25.8333,2.5 27.1667,2.5 28.5,2.5C 28.4535,5.92779 27.2868,8.92779 25,11.5C 25.1667,7.66667 23.3333,5.83333 19.5,6C 21.2331,4.81111 22.8998,3.64444 24.5,2.5 Z M 17.5,7.5 C 17.1667,11.8333 19.1667,13.8333 23.5,13.5C 20.0257,16.8017 16.359,19.9684 12.5,23C 10.2484,22.9504 8.58177,21.7837 7.5,19.5C 10.5095,15.1637 13.8428,11.1637 17.5,7.5 Z M 20.5,8.5 C 22.9732,8.94731 23.1399,9.94731 21,11.5C 19.2716,10.6477 19.105,9.64767 20.5,8.5 Z M 5.5,14.5 C 7.97518,14.7467 7.97518,15.4134 5.5,16.5C 4.53705,16.0302 4.53705,15.3635 5.5,14.5 Z M 15.5,23.5 C 16.7125,24.4971 16.5458,25.4971 15,26.5C 14.5304,25.4232 14.6971,24.4232 15.5,23.5 Z M 3.5,25.5 C 5.88516,26.8673 5.55182,28.2007 2.5,29.5C 2.16667,29.1667 1.83333,28.8333 1.5,28.5C 2.19251,27.4822 2.85917,26.4822 3.5,25.5 Z"/></g>
</svg>
