<?xml version="1.0" encoding="UTF-8"?>
<!DOCTYPE svg PUBLIC "-//W3C//DTD SVG 1.1//EN" "http://www.w3.org/Graphics/SVG/1.1/DTD/svg11.dtd">
<svg xmlns="http://www.w3.org/2000/svg" version="1.1" width="512px" height="512px" style="shape-rendering:geometricPrecision; text-rendering:geometricPrecision; image-rendering:optimizeQuality; fill-rule:evenodd; clip-rule:evenodd" xmlns:xlink="http://www.w3.org/1999/xlink">
<g><path style="opacity:0.966" fill="#000000" d="M 404.5,-0.5 C 413.167,-0.5 421.833,-0.5 430.5,-0.5C 449.622,2.64626 465.455,11.6463 478,26.5C 481.614,31.3945 484.448,36.7278 486.5,42.5C 486.167,43.1667 485.833,43.8333 485.5,44.5C 476.793,48.8704 467.793,52.0371 458.5,54C 447.507,31.0483 429.507,22.3817 404.5,28C 391.641,32.8591 382.808,41.6925 378,54.5C 375.365,63.6439 374.032,72.9772 374,82.5C 373.203,102.52 373.537,122.52 375,142.5C 377.993,167.659 392.16,180.993 417.5,182.5C 442.797,181.037 456.964,167.704 460,142.5C 460.667,136.5 460.667,130.5 460,124.5C 447.242,123.677 434.409,123.177 421.5,123C 420.167,114.333 420.167,105.667 421.5,97C 444.5,96.3333 467.5,96.3333 490.5,97C 491,97.5 491.5,98 492,98.5C 493.288,118.961 492.288,139.294 489,159.5C 478.128,194.01 454.461,211.343 418,211.5C 383.19,212.285 359.524,196.618 347,164.5C 344.121,153.348 342.455,142.015 342,130.5C 341.17,109.146 341.504,87.8123 343,66.5C 346.801,28.5427 367.301,6.20939 404.5,-0.5 Z"/></g>
<g><path style="opacity:0.977" fill="#000000" d="M 349.5,511.5 C 339.833,511.5 330.167,511.5 320.5,511.5C 294.305,507.651 272.138,495.984 254,476.5C 219.302,432.113 188.135,385.28 160.5,336C 145.455,335.818 130.455,335.318 115.5,334.5C 114.333,371.162 114.167,407.829 115,444.5C 115.231,451.943 116.231,459.276 118,466.5C 120.095,474.927 125.261,480.427 133.5,483C 146.103,485.325 158.77,487.159 171.5,488.5C 171.5,494.833 171.5,501.167 171.5,507.5C 120.5,504.849 69.4996,504.849 18.5,507.5C 18.5,501.167 18.5,494.833 18.5,488.5C 30.0585,486.963 41.3919,484.463 52.5,481C 58.4249,476.992 62.2582,471.492 64,464.5C 64.9449,460.886 65.6116,457.219 66,453.5C 66.6667,361.833 66.6667,270.167 66,178.5C 65.4732,170.587 63.1399,163.253 59,156.5C 54.4149,151.957 48.9149,149.124 42.5,148C 34.5069,146.39 26.5069,144.89 18.5,143.5C 18.5,137.5 18.5,131.5 18.5,125.5C 68.1804,125.809 117.847,125.142 167.5,123.5C 198.664,122.031 227.997,128.531 255.5,143C 284.653,162.131 298.986,189.298 298.5,224.5C 295.516,263.983 277.516,294.483 244.5,316C 234.261,321.789 223.594,326.456 212.5,330C 238.788,374.952 268.954,417.119 303,456.5C 315.534,470.846 330.701,481.346 348.5,488C 353.773,489.288 359.106,490.122 364.5,490.5C 364.829,496.206 364.495,501.872 363.5,507.5C 358.799,509.171 354.132,510.504 349.5,511.5 Z M 151.5,151.5 C 169.297,150.94 186.631,153.44 203.5,159C 231.916,172.456 245.916,195.122 245.5,227C 243.05,274.119 218.384,300.786 171.5,307C 152.567,307.955 133.733,307.455 115,305.5C 114.5,254.834 114.333,204.168 114.5,153.5C 126.982,152.913 139.316,152.246 151.5,151.5 Z"/></g>
</svg>
