<?xml version="1.0" encoding="UTF-8"?>
<!DOCTYPE svg PUBLIC "-//W3C//DTD SVG 1.1//EN" "http://www.w3.org/Graphics/SVG/1.1/DTD/svg11.dtd">
<svg xmlns="http://www.w3.org/2000/svg" version="1.1" width="24px" height="24px" style="shape-rendering:geometricPrecision; text-rendering:geometricPrecision; image-rendering:optimizeQuality; fill-rule:evenodd; clip-rule:evenodd" xmlns:xlink="http://www.w3.org/1999/xlink">
<g><path style="opacity:0.971" fill="#000000" d="M 3.5,1.5 C 8.83333,1.5 14.1667,1.5 19.5,1.5C 19.5,8.16667 19.5,14.8333 19.5,21.5C 14.1667,21.5 8.83333,21.5 3.5,21.5C 3.5,14.8333 3.5,8.16667 3.5,1.5 Z M 5.5,3.5 C 9.5,3.5 13.5,3.5 17.5,3.5C 17.5,8.83333 17.5,14.1667 17.5,19.5C 13.5,19.5 9.5,19.5 5.5,19.5C 5.5,14.1667 5.5,8.83333 5.5,3.5 Z"/></g>
<g><path style="opacity:0.766" fill="#000000" d="M 8.5,4.5 C 9.5,4.5 10.5,4.5 11.5,4.5C 11.5,5.5 11.5,6.5 11.5,7.5C 10.5,7.5 9.5,7.5 8.5,7.5C 8.5,6.5 8.5,5.5 8.5,4.5 Z"/></g>
<g><path style="opacity:0.843" fill="#000000" d="M 7.5,8.5 C 9.28801,8.21478 10.9547,8.54811 12.5,9.5C 11.6667,9.83333 10.8333,10.1667 10,10.5C 8.62439,10.3158 7.79106,9.64911 7.5,8.5 Z"/></g>
<g><path style="opacity:1" fill="#000000" d="M 7.5,12.5 C 10.2469,12.1866 12.9135,12.52 15.5,13.5C 14.1667,13.8333 12.8333,14.1667 11.5,14.5C 9.66723,14.4146 8.3339,13.7479 7.5,12.5 Z"/></g>
<g><path style="opacity:1" fill="#000000" d="M 7.5,15.5 C 10.2469,15.1866 12.9135,15.52 15.5,16.5C 14.1667,16.8333 12.8333,17.1667 11.5,17.5C 9.66723,17.4146 8.3339,16.7479 7.5,15.5 Z"/></g>
</svg>
