<?xml version="1.0" ?><!DOCTYPE svg  PUBLIC '-//W3C//DTD SVG 1.1//EN'  'http://www.w3.org/Graphics/SVG/1.1/DTD/svg11.dtd'><svg enable-background="new 0 0 300 300" height="2048px" style="shape-rendering:geometricPrecision; text-rendering:geometricPrecision; image-rendering:optimizeQuality; fill-rule:evenodd; clip-rule:evenodd" version="1.1" viewBox="0 0 2048 2048" width="2048px" xml:space="preserve" xmlns="http://www.w3.org/2000/svg" xmlns:xlink="http://www.w3.org/1999/xlink"><defs><style type="text/css">
   <![CDATA[
    .fil1 {fill:none}
    .fil0 {fill:#424242}
   ]]>
  </style></defs><g id="Layer_x0020_1"><g id="_246123800"><path class="fil0" d="M1776 508.8c0,-65.3894 -26.5063,-124.592 -69.3579,-167.444 -42.8516,-42.8516 -102.053,-69.3579 -167.444,-69.3579l-1030.4 0c-65.3894,0 -124.591,26.5063 -167.443,69.3591 -42.8528,42.8516 -69.3591,102.053 -69.3591,167.443l0 1030.4c0,65.3906 26.5051,124.593 69.3567,167.445 42.8516,42.8516 102.054,69.3567 167.445,69.3567l1030.4 0c65.3906,0 124.593,-26.5051 167.445,-69.3567 42.8516,-42.8516 69.3567,-102.054 69.3567,-167.445l0 -1030.4zm-803.71 -30.3685c94.7505,27.763 179.928,83.1627 239.762,161.287 21.6709,28.2981 39.1748,58.3867 52.1611,90.8505 12.9791,32.4485 21.4099,67.239 24.9343,104.952l1.54252 16.5083 -16.6051 0.86693c-57.7122,3.01418 -111.579,13.2378 -161.094,32.5453 -49.2414,19.2012 -94.2627,47.4284 -134.582,86.543 -40.6181,39.4016 -70.18,83.1922 -88.2957,132.032 -18.1205,48.8552 -24.8303,102.976 -19.7445,163.034l1.66063 19.6063 -19.5354 -2.4189c-6.68741,-0.827953 -23.0918,-2.97402 -39.228,-5.08347 -30.9733,-4.05 -60.5174,-7.91457 -91.4162,-10.5165 -6.69095,-0.562205 -13.9595,-0.414567 -20.7685,0.73819 -5.53465,0.936615 -10.6524,2.47205 -14.6728,4.74095 -28.1055,15.8587 -57.0945,34.2697 -88.5402,54.2398 -11.6504,7.39961 -23.6823,15.0414 -38.6681,24.4099l-32.211 20.1378 8.21103 -37.1374c2.50866,-11.3457 4.93111,-23.1756 7.27796,-34.6335 5.24292,-25.6004 10.1138,-49.3772 17.0244,-72.3532 2.69764,-8.96575 3.58229,-15.4571 2.01732,-20.2689 -1.5626,-4.80591 -6.06969,-9.58583 -14.2099,-15.3437 -74.1945,-52.3819 -126.932,-118.042 -155.232,-190.974 -28.1941,-72.6615 -32.0469,-152.307 -8.63623,-233.042 20.9374,-72.1938 56.6729,-130.704 104.376,-177.264 50.7048,-49.4847 114.738,-85.2485 188.726,-109.419 97.728,-31.9217 201.506,-31.65 295.747,-4.03701zm371.038 423.011c93.8056,13.9689 181.506,59.3918 238.259,132.565 49.5827,63.9237 71.3209,138.255 65.3906,209.857 -5.85591,70.702 -38.713,138.871 -98.3965,191.823 -20.439,18.1335 -34.4681,35.0953 -40.3878,54.4087 -5.33268,17.4047 -4.01103,35.4957 5.18386,56.289 -26.3528,-13.8992 -51.9792,-27.391 -80.4367,-30.3626 -24.613,-2.57008 -48.1902,4.19764 -72.0083,11.0339 -15.1276,4.34292 -30.3662,8.71772 -44.6055,10.1728 -56.5288,5.78268 -110.024,0.735827 -159.715,-15.4748 -48.8823,-15.9484 -94.1729,-42.7075 -135.138,-80.5914 -21.8977,-20.2536 -40.3548,-42.1335 -55.4162,-65.1213 -37.8272,-57.7394 -53.413,-121.908 -47.6622,-184.391 5.76142,-62.6067 32.9114,-123.722 80.5359,-175.21 19.5933,-21.1843 42.8174,-40.8355 69.6142,-58.3902 80.8619,-52.976 180.757,-70.6075 274.782,-56.6079z" id="_246124088"/><path class="fil0" d="M742.443 788.61c0.539764,-18.4725 -7.04056,-35.8748 -19.4303,-48.763 -12.2776,-12.7701 -29.4284,-21.2209 -48.1748,-21.9437l-0.0625985 0 -0.483071 -0.0165354 -0.0625985 0c-19.3028,-0.56693 -36.9248,6.55394 -49.8792,18.5894 -13.0063,12.0827 -21.2941,29.1284 -21.8634,48.3473l0 0.0625985 -0.00590552 0.23504c-0.490158,19.2437 6.65434,36.6107 18.7937,49.3288 12.1276,12.7075 29.1921,20.7284 48.5469,21.2988l0.240945 0.00708662 0.0625985 0c19.1728,0.486615 36.8374,-6.65434 49.9028,-18.6024 13.1752,-12.0473 21.678,-28.9866 22.3996,-47.9741l0 -0.0625985 0.0153543 -0.444095 0 -0.0625985z" id="_246124016"/><path class="fil0" d="M1081.96 785.408c-0.346063,-19.0169 -8.27481,-36.0083 -20.9032,-48.2044 -12.5658,-12.1335 -29.8075,-19.5012 -48.8575,-19.3441l-0.0625985 0 -0.557481 0.00708662 -0.0625985 0c-19.0099,0.350788 -36.4642,8.53701 -49.03,21.2043 -12.698,12.7996 -20.5595,30.2575 -20.2181,48.9768 0.347244,19.252 8.42835,36.3945 21.3213,48.6532 12.8126,12.1819 30.3744,19.5331 49.7788,19.2992 19.5118,-0.233858 36.7299,-7.95001 49.0548,-20.5122 12.352,-12.587 19.7291,-29.9374 19.5437,-49.4103l0 -0.0625985 -0.00708662 -0.544489 0 -0.0625985z" id="_246124640"/><path class="fil0" d="M1155.67 1077.15c-10.4693,-10.9158 -25.0429,-17.9469 -41.3044,-18.5681l-2.02914 -0.0318898c-0.938977,-0.00354331 -1.72795,0.00472441 -2.33977,0.0259843 -16.0146,0.563386 -30.6095,7.59213 -41.1851,18.4288 -10.5709,10.8331 -17.191,25.5827 -17.2654,41.5937 -0.00354331,0.924804 0.00472441,1.70197 0.0259843,2.30906 0.575197,16.1185 7.59213,30.6402 18.4902,41.1012 10.8898,10.4528 25.7114,16.9228 41.8985,16.9429 16.2343,0.0153543 31.037,-6.32835 41.9292,-16.6831 10.9276,-10.3866 17.9469,-24.8386 18.5823,-41.0032 0.0212599,-0.472441 0.0330709,-1.17165 0.034252,-2.08937l0 -0.0625985c0.0507874,-16.213 -6.36615,-31.0429 -16.8366,-41.9634z" id="_246123464"/><path class="fil0" d="M1447.31 1119.37c0.113386,-16.2851 -6.12284,-31.1268 -16.3996,-42.052 -10.3465,-11.0032 -24.7949,-18.0449 -41.0114,-18.6425l-0.0625985 0 -1.69606 -0.0283465 -0.0625985 0c-15.9319,-0.111024 -30.6201,6.30709 -41.4508,16.7457 -10.8071,10.415 -17.8347,24.887 -18.4784,40.9075 -0.022441,0.5563 -0.0354331,1.35473 -0.0366142,2.35984 -0.0413386,16.1173 6.17835,30.7689 16.4079,41.563 10.2543,10.8224 24.5469,17.7496 40.6205,18.3933 0.532678,0.0212599 1.30158,0.034252 2.30197,0.0354331 16.2827,0.0555119 30.9296,-6.14056 41.6953,-16.4433 10.7516,-10.2898 17.5465,-24.6555 18.1417,-40.9441l0.0307087 -1.89449z" id="_246123584"/></g></g><rect class="fil1" height="2048" width="2048"/></svg>